HIERARCHY
ROOT Hips
{
	OFFSET 0.00000 0.00000 0.00000
	CHANNELS 6 Xposition Yposition Zposition Zrotation Yrotation Xrotation 
	JOINT LHipJoint
	{
		OFFSET 0 0 0
		CHANNELS 3 Zrotation Yrotation Xrotation
		JOINT LeftHip
		{
			OFFSET 1.58895 -1.83665 0.71753
			CHANNELS 3 Zrotation Yrotation Xrotation
			JOINT LeftKnee
			{
				OFFSET 2.50528 -6.88321 0.00000
				CHANNELS 3 Zrotation Yrotation Xrotation
				JOINT LeftAnkle
				{
					OFFSET 2.63244 -7.23257 0.00000
					CHANNELS 3 Zrotation Yrotation Xrotation
					JOINT LeftToe
					{
						OFFSET 0.23691 -0.65090 1.72750
						CHANNELS 3 Zrotation Yrotation Xrotation
						End Site
						{
							OFFSET 0.00000 -0.00000 0.92561
						}
					}
				}
			}
		}
	}
	JOINT RHipJoint
	{
		OFFSET 0 0 0
		CHANNELS 3 Zrotation Yrotation Xrotation
		JOINT RightHip
		{
			OFFSET -1.51435 -1.83665 0.71753
			CHANNELS 3 Zrotation Yrotation Xrotation
			JOINT RightKnee
			{
				OFFSET -2.54551 -6.99375 0.00000
				CHANNELS 3 Zrotation Yrotation Xrotation
				JOINT RightAnkle
				{
					OFFSET -2.66027 -7.30903 0.00000
					CHANNELS 3 Zrotation Yrotation Xrotation
					JOINT RightToe
					{
						OFFSET -0.22981 -0.63138 2.03959
						CHANNELS 3 Zrotation Yrotation Xrotation
						End Site
						{
							OFFSET -0.00000 -0.00000 1.07060
						}
					}
				}
			}
		}
	}
	JOINT lowerback
	{
		OFFSET 0 0 0
		CHANNELS 3 Zrotation Yrotation Xrotation
		JOINT Chest
		{
			OFFSET -0.02651 1.86275 -0.11152
			CHANNELS 3 Zrotation Yrotation Xrotation
			JOINT Chest2
			{
				OFFSET 0.01019 1.86224 0.04087
				CHANNELS 3 Zrotation Yrotation Xrotation
				JOINT lowerneck
				{
					OFFSET 0 0 0
					CHANNELS 3 Zrotation Yrotation Xrotation
					JOINT Neck
					{
						OFFSET -0.01926 1.80512 0.08867
						CHANNELS 3 Zrotation Yrotation Xrotation
						JOINT Head
						{
							OFFSET 0.05516 1.76451 -0.38475
							CHANNELS 3 Zrotation Yrotation Xrotation
							End Site
							{
								OFFSET 0.01592 1.82587 -0.14001
							}
						}
					}
				}
				JOINT LeftCollar
				{
					OFFSET 0 0 0
					CHANNELS 3 Zrotation Yrotation Xrotation
					JOINT LeftShoulder
					{
						OFFSET 3.47116 1.51376 0.14491
CHANNELS 3 Zrotation Xrotation Yrotation
						JOINT LeftElbow
						{
OFFSET 0 -4.780950 0.000000
CHANNELS 3 Zrotation Xrotation Yrotation
							JOINT LeftWrist
							{
OFFSET 0 -3.586150 -0.000000
CHANNELS 3 Zrotation Xrotation Yrotation
								JOINT lhand
								{
									OFFSET 0 0 0
CHANNELS 3 Zrotation Xrotation Yrotation
									JOINT LFingers
									{
OFFSET 0 -0.659810 0.000000
CHANNELS 3 Zrotation Xrotation Yrotation
										End Site
										{
OFFSET 0 -0.531960 0.000000
										}
									}
								}
								JOINT LThumb
								{
OFFSET 0 0.000000 0.000000
CHANNELS 3 Zrotation Xrotation Yrotation
									End Site
									{
OFFSET 0 -0.540080 0.540080
									}
								}
							}
						}
					}
				}
				JOINT RightCollar
				{
					OFFSET 0 0 0
					CHANNELS 3 Zrotation Yrotation Xrotation
					JOINT RightShoulder
					{
						OFFSET -3.31725 1.61216 0.35156
CHANNELS 3 Zrotation Xrotation Yrotation
						JOINT RightElbow
						{
OFFSET 0 -4.489130 0.000000
CHANNELS 3 Zrotation Xrotation Yrotation
							JOINT RightWrist
							{
OFFSET 0 -3.705100 0.000000
CHANNELS 3 Zrotation Xrotation Yrotation
								JOINT rhand
								{
									OFFSET 0 0 0
CHANNELS 3 Zrotation Xrotation Yrotation
									JOINT RFingers
									{
OFFSET 0 -0.449140 0.000000
CHANNELS 3 Zrotation Xrotation Yrotation
										End Site
										{
OFFSET 0 -0.362110 0.000000
										}
									}
								}
								JOINT RThumb
								{
OFFSET 0 0.000000 0.000000
CHANNELS 3 Zrotation Xrotation Yrotation
									End Site
									{
OFFSET 0 -0.367630 0.367630
									}
								}
							}
						}
					}
				}
			}
		}
	}
}
MOTION
Frames: 7
Frame Time: 0.008333333333333333
-0.753800 18.191400 4.773500 -2.111800 -0.875600 3.135900 0.000000 0.000000 0.000000 -12.325900 -1.736300 12.492000 0.335800 -3.724100 -10.301900 -0.289800 11.520600 -11.197800 0.352900 -3.816700 -10.561700 0.000000 0.000000 0.000000 16.974600 -1.285600 10.819700 -0.260900 3.286300 -9.077000 -0.337200 -9.320900 -18.039500 -0.055000 -1.513700 4.163600 0.129500 1.024400 -1.623100 0.446500 1.373700 -2.940100 0.381500 0.689500 -2.111700 -1.679500 -2.498000 -10.713500 2.138500 -3.734300 25.235200 0.599700 -1.654800 9.825000 -0.000000 -0.000000 0.000000 -0.826900 11.083300 -29.437700 19.754600 -30.345500 5.406800 5.832500 4.503800 25.103900 0.000000 0.000000 0.000000 -7.125000 0.000000 0.000000 -14.420100 5.419100 -13.436200 -0.000000 -0.000000 0.000000 2.581000 21.833400 18.796500 -27.009500 -38.188300 -9.505000 -9.639800 16.122200 41.372600 0.000000 0.000000 0.000000 7.125000 0.000000 -0.000000 37.603300 68.236700 -22.145600
-0.725200 18.171562 4.804838 -2.154983 -1.217422 2.392925 0.000000 0.000000 0.000000 -12.733846 -3.083745 14.433179 0.371750 -3.916326 -10.841429 -0.395787 13.218111 -12.590582 0.287091 -3.445965 -9.522866 0.000000 0.000000 0.000000 16.849242 -1.176887 11.718986 -0.261460 3.289762 -9.086625 -0.343955 -9.286457 -18.083040 -0.053474 -1.491980 4.103660 0.626751 1.156520 -1.399277 0.370433 1.547560 -2.634681 0.024127 0.765679 -1.909071 -1.630360 -2.493389 -10.676996 2.083371 -3.724617 25.247553 0.573822 -1.652085 9.820007 0.000000 0.000000 0.000000 -0.846206 11.139981 -29.382447 19.770805 -30.365201 5.414972 5.835140 4.604582 25.077244 0.000000 0.000000 0.000000 -7.125000 0.000000 0.000000 -14.418464 5.444562 -13.427306 0.000000 0.000000 0.000000 2.575890 21.894011 18.819523 -27.021766 -38.199906 -9.512524 -9.583189 16.128824 41.474406 0.000000 0.000000 0.000000 7.125000 0.000000 0.000000 37.835759 68.295771 -22.346028
-0.725240 18.169882 4.806197 -2.146704 -1.228318 2.377422 0.000000 0.000000 0.000000 -12.736400 -3.041741 14.530117 0.382291 -3.970672 -10.994124 -0.406380 13.276266 -12.490084 0.290316 -3.464874 -9.575844 0.000000 0.000000 0.000000 16.838940 -1.172599 11.741126 -0.261379 3.289277 -9.085171 -0.348113 -9.255677 -18.099353 -0.057755 -1.550270 4.264328 0.615412 1.158428 -1.387034 0.368600 1.550144 -2.633167 0.028324 0.767192 -1.914640 -1.591659 -2.487822 -10.660845 2.053159 -3.717739 25.264554 0.557699 -1.648641 9.821364 0.000000 0.000000 0.000000 -0.853646 11.164651 -29.361809 19.785146 -30.382619 5.422283 5.871338 4.621522 25.017501 0.000000 0.000000 0.000000 -7.125000 0.000000 0.000000 -14.396410 5.499268 -13.390004 0.000000 0.000000 0.000000 2.568709 21.913347 18.847659 -27.018795 -38.197095 -9.510717 -9.483071 16.117658 41.529647 0.000000 0.000000 0.000000 7.125000 0.000000 0.000000 38.034002 68.306108 -22.484383
-0.725002 18.168983 4.807456 -2.118045 -1.229158 2.375331 0.000000 0.000000 0.000000 -12.768565 -3.038948 14.596164 0.389575 -4.007814 -11.098687 -0.409708 13.289961 -12.447546 0.283601 -3.424945 -9.464151 0.000000 0.000000 0.000000 16.805832 -1.172304 11.742293 -0.261381 3.289106 -9.084656 -0.349681 -9.243794 -18.104964 -0.058304 -1.557775 4.284952 0.600254 1.167279 -1.387953 0.343885 1.561508 -2.625640 0.011517 0.772934 -1.905998 -1.560956 -2.487758 -10.693117 2.062936 -3.727626 25.308336 0.554254 -1.648519 9.843089 0.000000 0.000000 0.000000 -0.815169 11.164435 -29.406300 19.804660 -30.406323 5.432160 5.883165 4.595709 25.020269 0.000000 0.000000 0.000000 -7.125000 0.000000 0.000000 -14.389312 5.495464 -13.384004 0.000000 0.000000 0.000000 2.608640 21.907956 18.816689 -27.022324 -38.200505 -9.512930 -9.519667 16.174213 41.523929 0.000000 0.000000 0.000000 7.125000 0.000000 0.000000 37.986400 68.313281 -22.459087
-0.724085 18.168779 4.808536 -2.095864 -1.220023 2.387709 0.000000 0.000000 0.000000 -12.794689 -3.034161 14.582265 0.389703 -4.008731 -11.101153 -0.409695 13.283946 -12.433232 0.291036 -3.469197 -9.587970 0.000000 0.000000 0.000000 16.783838 -1.178814 11.729001 -0.261936 3.292473 -9.094046 -0.345706 -9.263710 -18.079091 -0.056867 -1.539088 4.233523 0.594403 1.171241 -1.410805 0.330201 1.566323 -2.626288 0.001257 0.775362 -1.893584 -1.556969 -2.480212 -10.696965 2.066539 -3.719260 25.333006 0.555695 -1.643594 9.852459 0.000000 0.000000 0.000000 -0.813405 11.172913 -29.390097 19.822236 -30.427623 5.441047 5.886785 4.620401 25.056452 0.000000 0.000000 0.000000 -7.125000 0.000000 0.000000 -14.387332 5.460127 -13.392005 0.000000 0.000000 0.000000 2.623608 21.908816 18.791369 -27.033595 -38.211218 -9.519939 -9.650103 16.276269 41.455817 0.000000 0.000000 0.000000 7.125000 0.000000 0.000000 37.734771 68.302711 -22.285689
-0.723205 18.169595 4.810190 -2.111478 -1.205283 2.398749 0.000000 0.000000 0.000000 -12.777832 -3.006674 14.552761 0.388905 -4.004724 -11.090066 -0.411092 13.285394 -12.405562 0.312671 -3.594457 -9.938520 0.000000 0.000000 0.000000 16.800473 -1.195301 11.731065 -0.262895 3.298864 -9.111899 -0.337449 -9.303268 -18.024225 -0.052825 -1.482955 4.078678 0.628272 1.170505 -1.432588 0.330691 1.565207 -2.639619 -0.016783 0.774108 -1.894185 -1.494920 -2.475021 -10.619598 1.994877 -3.706664 25.321591 0.522723 -1.640711 9.830448 0.000000 0.000000 0.000000 -0.809545 11.213445 -29.391942 19.841686 -30.451162 5.450843 5.908170 4.613487 25.089620 0.000000 0.000000 0.000000 -7.125000 0.000000 0.000000 -14.374577 5.425986 -13.388925 0.000000 0.000000 0.000000 2.637107 21.928777 18.757510 -27.038186 -38.215587 -9.522791 -9.790123 16.355186 41.447365 0.000000 0.000000 0.000000 7.125000 0.000000 0.000000 37.575840 68.340329 -22.212562
-0.722838 18.169981 4.811934 -2.102745 -1.198011 2.401570 0.000000 0.000000 0.000000 -12.788282 -2.998639 14.553506 0.389373 -4.006764 -11.095738 -0.407046 13.256275 -12.427874 0.302363 -3.535161 -9.772390 0.000000 0.000000 0.000000 16.788166 -1.201678 11.727980 -0.262289 3.295018 -9.101222 -0.339489 -9.304017 -18.048085 -0.051183 -1.459868 4.015190 0.640439 1.173102 -1.440610 0.326648 1.568610 -2.642456 -0.027564 0.775534 -1.892130 -1.484481 -2.491611 -10.615520 1.939597 -3.718613 25.337153 0.500350 -1.651255 9.834072 0.000000 0.000000 0.000000 -0.806203 11.224392 -29.428566 19.861500 -30.475182 5.460971 5.924369 4.580669 25.119384 0.000000 0.000000 0.000000 -7.125000 0.000000 0.000000 -14.365126 5.395700 -13.388070 0.000000 0.000000 0.000000 2.638278 21.910346 18.712699 -27.011156 -38.189894 -9.506055 -9.811652 16.343787 41.342244 0.000000 0.000000 0.000000 7.125000 0.000000 0.000000 37.373964 68.267375 -22.021288
